<svg viewBox="0 0 1440 1140" xmlns="http://www.w3.org/2000/svg" role="img" aria-labelledby="t4 d4">
<title id="t4">Find Evil DFIR agent — final architecture</title>
<desc id="d4">A central data flow (disk images, collector, evidence bundle, agent, output) runs through a writable sandbox below a trust boundary. The agent classifies the case, routes to a track, evaluates findings, and may run a targeted read-only icat to confirm a finding before re-evaluating (a light self-correction loop). Left rail: architectural guardrails (OS/config, cannot bypass). Right column: an Autonomous Decisions callout and the CLAUDE.md DFIR protocol (prompt-based). Output includes a stream-json run log; findings cite inodes so each is traceable to its tool call.</desc>
<style>
  text{font-family:ui-sans-serif,system-ui,-apple-system,"Segoe UI",sans-serif;}
  .ttl{font-weight:800;} .hd{font-weight:700;} .bt{font-weight:700;}
  .ink{fill:#1a1a1a;} .mut{fill:#555;}
  @media (prefers-color-scheme:dark){ .ink{fill:#ededed;} .mut{fill:#b6b6b6;} }
  .nt{fill:#2C2C2A;} .gt{fill:#08412f;} .pt{fill:#26215C;} .btx{fill:#0c3a63;} .kt{fill:#4B1528;} .rt{fill:#7a1d10;} .am{fill:#7a4f08;}
  rect{stroke-width:1.5;}
</style>
<defs>
  <marker id="fl" viewBox="0 0 10 10" refX="8" refY="5" markerWidth="7" markerHeight="7" orient="auto-start-reverse"><path d="M0 0L10 5L0 10z" fill="#555"/></marker>
  <marker id="rdm" viewBox="0 0 10 10" refX="8" refY="5" markerWidth="8" markerHeight="8" orient="auto-start-reverse"><path d="M0 0L10 5L0 10z" fill="#C0392B"/></marker>
  <marker id="gm" viewBox="0 0 10 10" refX="8" refY="5" markerWidth="7" markerHeight="7" orient="auto-start-reverse"><path d="M0 0L10 5L0 10z" fill="#1D9E75"/></marker>
  <marker id="pm" viewBox="0 0 10 10" refX="8" refY="5" markerWidth="7" markerHeight="7" orient="auto-start-reverse"><path d="M0 0L10 5L0 10z" fill="#7F77DD"/></marker>
  <marker id="amk" viewBox="0 0 10 10" refX="8" refY="5" markerWidth="8" markerHeight="8" orient="auto-start-reverse"><path d="M0 0L10 5L0 10z" fill="#B9770E"/></marker>
</defs>

<text x="720" y="34" text-anchor="middle" class="ttl ink" font-size="25">Find Evil! — Autonomous DFIR Triage Agent</text>
<text x="720" y="56" text-anchor="middle" class="mut" font-size="12">Single autonomous agent (Direct Agent Extension, Claude Code) · two-phase pipeline · no MCP servers</text>
<g font-size="11" class="mut">
  <text x="120" y="86">🔒 architectural — cannot bypass</text>
  <text x="430" y="86">📝 prompt-based (CLAUDE.md) — could ignore</text>
  <line x1="820" y1="82" x2="848" y2="82" stroke="#C0392B" stroke-width="2.5" stroke-dasharray="6 4"/><text x="854" y="86">trust boundary</text>
  <line x1="1010" y1="82" x2="1038" y2="82" stroke="#B9770E" stroke-width="2.5"/><text x="1044" y="86">self-correction loop</text>
</g>

<rect x="410" y="150" width="455" height="86" rx="11" fill="#FAECE7" stroke="#C0392B" stroke-width="2.5" stroke-dasharray="9 5"/>
<text x="638" y="172" text-anchor="middle" class="rt bt" font-size="12.5">DATA SOURCES — disk images (READ-ONLY)</text>
<g font-size="10.5">
  <rect x="420" y="180" width="143" height="46" rx="7" fill="#fff" stroke="#C0392B"/><text x="491" y="201" text-anchor="middle" class="rt bt">4Dell CPi .E01</text><text x="491" y="216" text-anchor="middle" class="rt" font-size="9">intrusion</text>
  <rect x="567" y="180" width="143" height="46" rx="7" fill="#fff" stroke="#C0392B"/><text x="638" y="201" text-anchor="middle" class="rt bt">SCHARDT.001</text><text x="638" y="216" text-anchor="middle" class="rt" font-size="9">raw · same disk</text>
  <rect x="714" y="180" width="143" height="46" rx="7" fill="#fff" stroke="#C0392B"/><text x="785" y="201" text-anchor="middle" class="rt bt">jean .E01</text><text x="785" y="216" text-anchor="middle" class="rt" font-size="9">exfiltration</text>
</g>

<line x1="14" y1="254" x2="952" y2="254" stroke="#C0392B" stroke-width="3" stroke-dasharray="11 6"/>
<rect x="500" y="243" width="276" height="22" rx="11" fill="#fff" stroke="#C0392B"/>
<text x="638" y="258" text-anchor="middle" class="rt bt" font-size="10">▲ READ-ONLY EVIDENCE · WRITABLE SANDBOX ▼</text>
<line x1="638" y1="236" x2="638" y2="282" stroke="#C0392B" stroke-width="2.5" marker-end="url(#rdm)"/>

<rect x="410" y="284" width="455" height="42" rx="9" fill="#F1EFE8" stroke="#888780"/>
<text x="638" y="302" text-anchor="middle" class="nt bt" font-size="11.5">① ORCHESTRATOR (deterministic) — app.py run_triage() + collect.sh</text>
<text x="638" y="318" text-anchor="middle" class="nt" font-size="9.5">sequences Phase 1 → Phase 2 → render · no LLM</text>

<rect x="410" y="344" width="455" height="120" rx="10" fill="#E1F5EE" stroke="#1D9E75"/>
<text x="638" y="362" text-anchor="middle" class="gt bt" font-size="11.5">PHASE 1 · COLLECTOR — SIFT tools (read-only) · ② TOOL USE</text>
<g font-size="10">
  <rect x="420" y="370" width="105" height="32" rx="6" fill="#fff" stroke="#1D9E75"/><text x="472" y="390" text-anchor="middle" class="gt bt">mmls</text>
  <rect x="530" y="370" width="105" height="32" rx="6" fill="#fff" stroke="#1D9E75"/><text x="582" y="390" text-anchor="middle" class="gt bt">fsstat</text>
  <rect x="640" y="370" width="105" height="32" rx="6" fill="#fff" stroke="#1D9E75"/><text x="692" y="390" text-anchor="middle" class="gt bt">fls -r</text>
  <rect x="750" y="370" width="105" height="32" rx="6" fill="#fff" stroke="#1D9E75"/><text x="802" y="390" text-anchor="middle" class="gt bt">mactime</text>
  <rect x="420" y="408" width="105" height="32" rx="6" fill="#fff" stroke="#1D9E75"/><text x="472" y="428" text-anchor="middle" class="gt bt">prefetch</text>
  <rect x="530" y="408" width="105" height="32" rx="6" fill="#fff" stroke="#1D9E75"/><text x="582" y="428" text-anchor="middle" class="gt bt">readpst</text>
  <rect x="640" y="408" width="105" height="32" rx="6" fill="#fff" stroke="#1D9E75"/><text x="692" y="428" text-anchor="middle" class="gt bt">exfil scan</text>
  <rect x="750" y="408" width="105" height="32" rx="6" fill="#fff" stroke="#1D9E75"/><text x="802" y="428" text-anchor="middle" class="gt bt">recycler</text>
</g>
<text x="638" y="456" text-anchor="middle" class="gt" font-size="9.5">read-only reads → sandbox scratch only</text>

<rect x="500" y="482" width="275" height="40" rx="20" fill="#F1EFE8" stroke="#888780"/>
<text x="638" y="500" text-anchor="middle" class="nt bt" font-size="11.5">EVIDENCE BUNDLE — text digests</text>
<text x="638" y="514" text-anchor="middle" class="nt" font-size="8.5">offset · fsstat · indicators · prefetch · timeline · mail · exfil · recycler</text>

<rect x="410" y="540" width="455" height="322" rx="10" fill="#EEEDFE" stroke="#7F77DD"/>
<text x="638" y="558" text-anchor="middle" class="pt bt" font-size="11.5">PHASE 2 · AUTONOMOUS AGENT — Claude Code (CLAUDE.md)</text>
<rect x="420" y="565" width="435" height="24" rx="6" fill="#26215C"/>
<text x="638" y="581" text-anchor="middle" fill="#EEEDFE" font-size="8" font-family="ui-monospace,Menlo,monospace">claude -p --permission-mode dontAsk --max-turns 10 --output-format stream-json</text>
<text x="638" y="606" text-anchor="middle" class="pt bt" font-size="11">③ ROUTER — triage classifies the case</text>
<g font-size="10">
  <rect x="420" y="612" width="143" height="30" rx="7" fill="#FBEAF0" stroke="#D4537E"/><text x="491" y="631" text-anchor="middle" class="kt bt">INTRUSION</text>
  <rect x="567" y="612" width="143" height="30" rx="7" fill="#FBEAF0" stroke="#D4537E"/><text x="638" y="631" text-anchor="middle" class="kt bt">EXFILTRATION</text>
  <rect x="714" y="612" width="143" height="30" rx="7" fill="#FBEAF0" stroke="#D4537E"/><text x="785" y="631" text-anchor="middle" class="kt bt">MALWARE</text>
</g>
<rect x="420" y="652" width="435" height="30" rx="7" fill="#fff" stroke="#7F77DD"/>
<text x="638" y="672" text-anchor="middle" class="pt" font-size="10">④ EVALUATOR — label findings: CONFIRMED · LIKELY · UNVERIFIED · cite inode</text>
<text x="638" y="697" text-anchor="middle" class="am bt" font-size="9">↻ self-correction loop — confirm with a targeted read, then re-evaluate</text>
<rect x="468" y="704" width="200" height="44" rx="22" fill="#fff" stroke="#7F77DD" stroke-width="2"/>
<text x="568" y="724" text-anchor="middle" class="pt bt" font-size="11">Need more evidence?</text>
<text x="568" y="738" text-anchor="middle" class="pt" font-size="9">agent's own decision</text>
<rect x="700" y="704" width="155" height="44" rx="8" fill="#FCF3E0" stroke="#B9770E"/>
<text x="777" y="723" text-anchor="middle" class="am bt" font-size="10.5">Targeted icat</text>
<text x="777" y="738" text-anchor="middle" class="am" font-size="9">read-only, on demand</text>
<line x1="668" y1="726" x2="698" y2="726" stroke="#B9770E" stroke-width="2" marker-end="url(#amk)"/>
<text x="683" y="718" text-anchor="middle" class="am bt" font-size="9.5">Yes</text>
<path d="M855 712 C 900 712, 900 670, 859 670" fill="none" stroke="#B9770E" stroke-width="2" marker-end="url(#amk)"/>
<text x="906" y="694" class="am" font-size="8.5">re-evaluate</text>
<line x1="568" y1="748" x2="568" y2="858" stroke="#555" stroke-width="2" marker-end="url(#fl)"/>
<text x="540" y="776" class="pt bt" font-size="9.5">No</text>
<text x="582" y="776" class="mut" font-size="9">→ compose report</text>
<text x="596" y="826" class="gt" font-size="9">🔒 tool calls pass the deny-list / read-only allow-list</text>

<rect x="410" y="888" width="455" height="126" rx="10" fill="#E6F1FB" stroke="#378ADD"/>
<text x="638" y="906" text-anchor="middle" class="btx bt" font-size="11.5">OUTPUT PIPELINE</text>
<g font-size="10">
  <rect x="420" y="913" width="143" height="34" rx="6" fill="#fff" stroke="#378ADD"/><text x="491" y="934" text-anchor="middle" class="btx bt">DFIR report</text>
  <rect x="567" y="913" width="143" height="34" rx="6" fill="#fff" stroke="#378ADD"/><text x="638" y="934" text-anchor="middle" class="btx bt">Dashboard</text>
  <rect x="714" y="913" width="143" height="34" rx="6" fill="#fff" stroke="#378ADD"/><text x="785" y="934" text-anchor="middle" class="btx bt">IOC table</text>
</g>
<rect x="420" y="953" width="437" height="53" rx="7" fill="#fff" stroke="#378ADD" stroke-width="2"/>
<text x="638" y="971" text-anchor="middle" class="btx bt" font-size="10.5">RUN LOG (stream-json JSONL)</text>
<text x="638" y="989" text-anchor="middle" class="btx" font-size="9.5">tool calls · timestamps · token usage  ·  findings cite inode + source</text>
<text x="638" y="1001" text-anchor="middle" class="btx" font-size="8.5">supports tracing each finding back to its tool call (req #8)</text>

<g stroke="#555" stroke-width="2" marker-end="url(#fl)">
  <line x1="638" y1="326" x2="638" y2="342"/>
  <line x1="638" y1="464" x2="638" y2="480"/>
  <line x1="638" y1="522" x2="638" y2="538"/>
  <line x1="638" y1="862" x2="638" y2="886"/>
</g>

<rect x="24" y="150" width="332" height="712" rx="12" fill="#E1F5EE" stroke="#1D9E75" stroke-width="2"/>
<text x="40" y="176" class="gt bt" font-size="13">🔒 ARCHITECTURAL GUARDRAILS</text>
<text x="40" y="193" class="gt" font-size="10">OS / config enforced — model CANNOT bypass</text>
<g font-size="10">
  <rect x="38" y="202" width="304" height="38" rx="7" fill="#fff" stroke="#1D9E75"/><text x="50" y="218" class="gt bt">chmod 444 + read-only mount</text><text x="50" y="233" class="gt" font-size="9">original image is immutable</text>
  <rect x="38" y="246" width="304" height="38" rx="7" fill="#fff" stroke="#1D9E75"/><text x="50" y="262" class="gt bt">SHA-256 baseline + verify</text><text x="50" y="277" class="gt" font-size="9">re-checked after every run</text>
  <rect x="38" y="290" width="304" height="38" rx="7" fill="#fff" stroke="#1D9E75"/><text x="50" y="306" class="gt bt">deny-list (writes blocked)</text><text x="50" y="321" class="gt" font-size="9">dd·rm·mv·cp·mount·mkfs·tee·shred</text>
  <rect x="38" y="334" width="304" height="38" rx="7" fill="#fff" stroke="#1D9E75"/><text x="50" y="350" class="gt bt">dontAsk + read-only TSK allow-list</text><text x="50" y="365" class="gt" font-size="9">only mmls / fls / icat / fsstat</text>
  <rect x="38" y="378" width="304" height="38" rx="7" fill="#fff" stroke="#1D9E75"/><text x="50" y="394" class="gt bt">writes confined to sandbox scratch</text><text x="50" y="409" class="gt" font-size="9">never the evidence</text>
</g>
<text x="40" y="440" class="gt bt" font-size="10.5">Enforcement point</text>
<text x="40" y="456" class="gt" font-size="9.5">OS file permissions + Claude Code permission engine</text>
<rect x="38" y="468" width="304" height="104" rx="8" fill="#fff" stroke="#1D9E75"/>
<text x="50" y="490" class="gt bt" font-size="10.5">If a forbidden command is attempted:</text>
<text x="50" y="510" class="gt" font-size="9.5">→ DENIED before execution; the call is logged.</text>
<text x="50" y="528" class="gt" font-size="9.5">→ evidence bytes are unchanged.</text>
<text x="50" y="548" class="gt bt" font-size="9.5">Spoliation impact: NONE.</text>
<text x="50" y="565" class="gt" font-size="9">SHA-256 pre/post → court-defensible custody.</text>
<text x="40" y="600" class="gt" font-size="9.5">These controls protect the evidence zone, the</text>
<text x="40" y="615" class="gt" font-size="9.5">boundary crossing, and every tool call. →</text>
<rect x="38" y="636" width="304" height="206" rx="8" fill="#0B3D62"/>
<text x="190" y="664" text-anchor="middle" fill="#fff" font-size="13" class="bt">SPOLIATION TEST ✓</text>
<text x="190" y="686" text-anchor="middle" fill="#cfe6da" font-size="9.5">dd / rm / mv / mount on the image</text>
<text x="190" y="702" text-anchor="middle" fill="#cfe6da" font-size="9.5">→ all blocked.</text>
<text x="190" y="724" text-anchor="middle" fill="#cfe6da" font-size="9.5">SHA-256 identical before &amp; after</text>
<text x="190" y="740" text-anchor="middle" fill="#cfe6da" font-size="9.5">every run — no modification.</text>
<text x="190" y="772" text-anchor="middle" fill="#9fe1cb" font-size="9.5">VALIDATED on both cases</text>
<text x="190" y="792" text-anchor="middle" fill="#fff" font-size="10">Mr. Evil ✓ · M57-Jean ✓</text>
<text x="190" y="812" text-anchor="middle" fill="#cfe6da" font-size="9.5">one generalist agent</text>
<text x="190" y="828" text-anchor="middle" fill="#cfe6da" font-size="9.5">~62 s · 5 tool calls / case</text>

<g stroke="#1D9E75" stroke-width="1.6" stroke-dasharray="4 3" marker-end="url(#gm)" fill="none">
  <path d="M356 200 L408 192"/>
  <path d="M356 305 L408 380"/>
</g>

<rect x="960" y="150" width="456" height="196" rx="12" fill="#0B3D62" stroke="#0B3D62"/>
<text x="980" y="180" fill="#ffffff" class="bt" font-size="15">🤖 AUTONOMOUS DECISIONS</text>
<text x="980" y="199" fill="#bcd4ea" font-size="10.5">the agent decides — this is not a fixed script</text>
<g font-size="11.5" fill="#ffffff">
  <text x="982" y="226"><tspan fill="#5DCAA5" font-weight="bold">✓ </tspan>classify the case type</text>
  <text x="982" y="250"><tspan fill="#5DCAA5" font-weight="bold">✓ </tspan>choose the investigation workflow</text>
  <text x="982" y="274"><tspan fill="#5DCAA5" font-weight="bold">✓ </tspan>decide what evidence is needed</text>
  <text x="982" y="298"><tspan fill="#5DCAA5" font-weight="bold">✓ </tspan>perform targeted retrieval</text>
  <text x="982" y="322"><tspan fill="#5DCAA5" font-weight="bold">✓ </tspan>self-evaluate its findings</text>
  <text x="1218" y="226"><tspan fill="#5DCAA5" font-weight="bold">✓ </tspan>produce the final report</text>
</g>

<rect x="960" y="366" width="456" height="372" rx="12" fill="#EEEDFE" stroke="#7F77DD" stroke-width="2"/>
<text x="980" y="394" class="pt bt" font-size="14">📝 DFIR PROTOCOL — CLAUDE.md</text>
<text x="980" y="412" class="pt" font-size="10">prompt-based · the agent's forensic playbook (could ignore)</text>
<g font-size="10.5">
  <rect x="976" y="424" width="424" height="64" rx="8" fill="#fff" stroke="#7F77DD"/>
  <text x="990" y="446" class="pt bt">Grounding rules</text><text x="990" y="465" class="pt" font-size="9.5">cite only THIS run's evidence bundle —</text><text x="990" y="480" class="pt" font-size="9.5">no prior-case memory, no outside knowledge</text>
  <rect x="976" y="496" width="424" height="64" rx="8" fill="#fff" stroke="#7F77DD"/>
  <text x="990" y="518" class="pt bt">Investigation tracks</text><text x="990" y="537" class="pt" font-size="9.5">route to intrusion / exfiltration / malware</text><text x="990" y="552" class="pt" font-size="9.5">and ask track-specific questions</text>
  <rect x="976" y="568" width="424" height="64" rx="8" fill="#fff" stroke="#7F77DD"/>
  <text x="990" y="590" class="pt bt">Self-correction rules</text><text x="990" y="609" class="pt" font-size="9.5">PRESENT vs EXECUTED · whole-word matching ·</text><text x="990" y="624" class="pt" font-size="9.5">label CONFIRMED / LIKELY / UNVERIFIED</text>
  <rect x="976" y="640" width="424" height="64" rx="8" fill="#fff" stroke="#7F77DD"/>
  <text x="990" y="662" class="pt bt">Citation requirements</text><text x="990" y="681" class="pt" font-size="9.5">every finding maps to an artifact, an inode,</text><text x="990" y="696" class="pt" font-size="9.5">and a source file</text>
</g>
<text x="1188" y="726" text-anchor="middle" class="pt" font-size="9.5">governs the agent (prompt layer, atop the architectural layer)</text>

<path d="M960 560 L868 600" fill="none" stroke="#7F77DD" stroke-width="1.6" stroke-dasharray="4 3" marker-end="url(#pm)"/>
</svg>
